# AST/ASF file generated using VICON BodyLanguage
# -----------------------------------------------
:version 1.10
:name VICON
:units
  mass 1.0
  length 0.45
  angle deg
:documentation
   .ast/.asf automatically generated from VICON data using
   VICON BodyBuilder and BodyLanguage model FoxedUp or BRILLIANT.MOD
:root
   order TX TY TZ RX RY RZ
   axis XYZ
   position 0 0 0  
   orientation 0 0 0 
:bonedata
  begin
     id 1 
     name lhipjoint
     direction 0.612567 -0.751349 0.245431 
     length 2.42285 
     axis 0 0 0  XYZ
  end
  begin
     id 2 
     name lfemur
     direction 0.34202 -0.939693 0  
     length 7.11304  
     axis 0 0 20  XYZ
    dof rx ry rz
    limits (-160.0 20.0)
           (-70.0 70.0)
           (-60.0 70.0)
  end
  begin
     id 3 
     name ltibia
     direction 0.34202 -0.939693 0   
     length 7.84529   
     axis 0 0 20   XYZ
    dof rx
    limits (-10.0 170.0)
  end
  begin
     id 4 
     name lfoot
     direction 0.0779239 -0.214094 0.9737   
     length 1.97176   
     axis -90 7.62852e-016 20   XYZ
    dof rx rz
    limits (-45.0 90.0)
           (-70.0 20.0)
  end
  begin
     id 5 
     name ltoes
     direction 1.53565e-011 -4.21709e-011 1   
     length 0.993197   
     axis -90 7.62852e-016 20   XYZ
    dof rx
    limits (-90.0 20.0)
  end
  begin
     id 6 
     name rhipjoint
     direction -0.665722 -0.709315 0.231701   
     length 2.56642  
     axis 0 0 0  XYZ 
  end
  begin
     id 7 
     name rfemur
     direction -0.34202 -0.939693 0   
     length 7.32108   
     axis 0 0 -20   XYZ
    dof rx ry rz
    limits (-160.0 20.0)
           (-70.0 70.0)
           (-70.0 60.0)
  end
  begin
     id 8 
     name rtibia
     direction -0.34202 -0.939693 0   
     length 7.81254   
     axis 0 0 -20   XYZ
    dof rx
    limits (-10.0 170.0)
 end
 begin
     id 9 
     name rfoot
     direction -0.0832806 -0.228812 0.969902   
     length 2.08278  
     axis -90 -7.62852e-016 -20   XYZ
    dof rx rz
    limits (-45.0 90.0)
           (-20.0 70.0)
  end
  begin
     id 10 
     name rtoes
     direction -1.53589e-011 -4.22086e-011 1   
     length 1.04609   
     axis -90 -7.62852e-016 -20   XYZ
    dof rx
    limits (-90.0 20.0)
  end
  begin
     id 11 
     name lowerback
     direction -0.00506013 0.988403 -0.151766   
     length 2.01978   
     axis 0 0 0   XYZ
    dof rx ry rz
    limits (-20.0 45.0)
           (-30.0 30.0)
           (-30.0 30.0)
  end
  begin
     id 12 
     name upperback
     direction -0.00836389 0.99968 0.0238859   
     length 2.01276   
     axis 0 0 0   XYZ
    dof rx ry rz
    limits (-20.0 45.0)
           (-30.0 30.0)
           (-30.0 30.0)
  end
  begin
     id 13 
     name thorax
     direction -0.00684136 0.995386 0.0957043   
     length 2.07303   
     axis 0 0 0   XYZ
    dof rx ry rz
    limits (-20.0 45.0)
           (-30.0 30.0)
           (-30.0 30.0)
  end
  begin
     id 14 
     name lowerneck
     direction -0.0161045 0.999661 0.0204485   
     length 1.91243   
     axis 0 0 0   XYZ
    dof rx ry rz
    limits (-20.0 45.0)
           (-30.0 30.0)
           (-30.0 30.0)
  end
  begin
     id 15 
     name upperneck
     direction 0.0553583 0.990946 -0.122319   
     length 1.91574   
     axis 0 0 0   XYZ
    dof rx ry rz
    limits (-20.0 45.0)
           (-30.0 30.0)
           (-30.0 30.0)
  end
  begin
     id 16
     name head
     direction 0.0180273 0.998839 -0.0446756  
     length 1.92693  
     axis 0 0 0   XYZ
    dof rx ry rz
    limits (-20.0 45.0)
           (-30.0 30.0)
           (-30.0 30.0)
  end
  begin
     id 17 
     name lclavicle
     direction 0.945646 0.319323 -0.0615358  
     length 4.0076  
     axis 0 0 0   XYZ
    dof ry rz
    limits (-20.0 10.0)
           (0.0 20.0)
  end
  begin
     id 18 
     name lhumerus
     direction 1 -4.48967e-011 -2.79996e-027   
     length 5.64147   
     axis 180 -30 -90   XYZ
    dof rx ry rz
    limits (-60.0 90.0)
           (-90.0 90.0)
           (-90.0 90.0)
  end
  begin
     id 19
     name lradius
     direction 1 -4.48976e-011 -9.5122e-027   
     length 2.86444   
     axis 180 -30 -90   XYZ
    dof rx
    limits (-10.0 170.0)
  end
  begin
     id 20
     name lwrist
     direction 1 -4.48983e-011 -1.24047e-026   
     length 1.43222   
     axis 9.05591e-015 90 90   XYZ
    dof ry
    limits (-180.0 0.0)
 end
  begin
     id 21 
     name lhand
     direction 1 -4.4892e-011 -2.48094e-026   
     length 0.722123   
     axis 1.58305e-014 90 90   XYZ
    dof rx rz
    limits (-90.0 90.0)
           (-45.0 45.0)
  end
  begin
     id 22 
     name lfingers
     direction 1 -4.48895e-011 -4.96187e-026   
     length 0.582194   
     axis 3.1661e-014 90 90   XYZ
    dof rx
    limits (0.0 90.0)
  end
  begin
     id 23
     name lthumb
     direction 0.707107 -6.34961e-011 0.707107   
     length 0.835918   
     axis -90 45 2.85299e-015   XYZ
    dof rx rz
    limits (-45.0 45.0)
           (-45.0 45.0)
  end
  begin
     id 24 
     name rclavicle
     direction -0.932635 0.324218 -0.15835   
     length 3.65819  
     axis 0 0 0   XYZ 
    dof ry rz
    limits (-10.0 20.0)
           (-20.0 0.0)
  end
  begin
     id 25 
     name rhumerus
     direction -1 -4.48965e-011 -4.02296e-027  
     length 5.44729   
     axis 180 30 90   XYZ
    dof rx ry rz
    limits (-90.0 60.0)
           (-90.0 90.0)
           (-90.0 90.0)
  end
  begin
     id 26 
     name rradius
     direction -1 -4.48957e-011 -8.81087e-027   
     length 3.08821   
     axis 180 30 90   XYZ
    dof rx
    limits (-10.0 170.0)
  end
  begin
     id 27 
     name rwrist
     direction -1 -4.49015e-011 -1.24047e-026   
     length 1.5441   
     axis 9.05591e-015 -90 -90   XYZ
    dof ry
    limits (-180.0 0.0)
  end
  begin
     id 28
     name rhand
     direction -1 -4.4891e-011 -2.48094e-026   
     length 0.821049   
     axis 1.58305e-014 -90 -90   XYZ
    dof rx rz
    limits (-90.0 90.0)
           (-45.0 45.0)
  end
  begin
     id 29
     name rfingers
     direction -1 -4.48985e-011 -4.96187e-026   
     length 0.661951   
     axis 3.1661e-014 -90 -90   XYZ
    dof rx
    limits (0.0 90.0)
  end
  begin
     id 30
     name rthumb
     direction -0.707107 -6.34906e-011 0.707107   
     length 0.950433   
     axis -90 -45 -2.85299e-015   XYZ
    dof rx rz
    limits (-45.0 45.0)
           (-45.0 45.0)
  end
:hierarchy
  begin
    root lhipjoint rhipjoint lowerback
    lhipjoint lfemur
    lfemur ltibia
    ltibia lfoot
    lfoot ltoes
    rhipjoint rfemur
    rfemur rtibia
    rtibia rfoot
    rfoot rtoes
    lowerback upperback
    upperback thorax
    thorax lowerneck lclavicle rclavicle
    lowerneck upperneck
    upperneck head
    lclavicle lhumerus
    lhumerus lradius
    lradius lwrist
    lwrist lhand lthumb
    lhand lfingers
    rclavicle rhumerus
    rhumerus rradius
    rradius rwrist
    rwrist rhand rthumb
    rhand rfingers
  end

#!OML:ASF F:\VICON\USERDATA\INSTALL\rory3\rory3.ASF
:FULLY-SPECIFIED
:DEGREES
1180
root 4.12604 17.2907 0.309901 354.072 67.7501 360.345
lowerback -4.02871 -2.54971 -2.87568
upperback -5.35659 -3.28709 -3.84825
thorax -3.34062 -1.55609 -2.40363
lowerneck -1.98908 -8.51087 -7.12148
upperneck 5.74739 -11.7901 10.4988
head 3.08168 -5.70696 3.83563
rclavicle 5.32743e-014 5.64548e-014
rhumerus 27.7207 -18.4601 -44.0756
rradius 118.697
rwrist -51.5206
rhand -11.6102 13.1206
rfingers 7.12502
rthumb 14.4326 -16.3575
lclavicle 5.32743e-014 5.64548e-014
lhumerus 30.843 0.852111 70.2439
lradius 126.135
lwrist 72.25
lhand -12.7749 0.34074
lfingers 7.12502
lthumb 13.3101 29.8957
rfemur -0.956962 7.04013 18.7698
rtibia 28.6815
rfoot -20.4207 6.81076
rtoes -3.56374
lfemur 10.53 7.74859 -16.1524
ltibia 17.5855
lfoot -22.8277 9.0972
ltoes -10.1182
1181
root 4.12554 17.2844 0.303104 354.143 67.2128 360.543
lowerback -4.09226 -2.64603 -3.21443
upperback -5.27658 -3.40254 -3.75748
thorax -3.19905 -1.60194 -2.1269
lowerneck -2.02538 -8.5588 -6.89528
upperneck 5.88247 -11.8515 10.1928
head 3.10146 -5.73888 3.70169
rclavicle 1.15295e-014 1.43125e-014
rhumerus 28.3922 -18.1617 -44.3873
rradius 118.773
rwrist -51.1529
rhand -11.67 12.9955
rfingers 7.12502
rthumb 14.3749 -16.4868
lclavicle 1.15295e-014 1.43125e-014
lhumerus 31.3183 0.425205 70.5328
lradius 126.122
lwrist 71.7186
lhand -13.0804 0.222055
lfingers 7.12502
lthumb 13.0157 29.796
rfemur -1.03371 7.25501 18.6736
rtibia 28.8789
rfoot -20.3515 7.14203
rtoes -3.34919
lfemur 10.7403 8.02664 -16.2264
ltibia 17.6026
lfoot -22.9588 9.18418
ltoes -9.67369
1182
root 4.12344 17.2803 0.293734 354.365 66.6807 360.841
lowerback -3.99518 -2.77936 -3.16754
upperback -5.37449 -3.59168 -3.94885
thorax -3.37544 -1.69882 -2.34731
lowerneck -2.10701 -8.57018 -6.65617
upperneck 6.3971 -11.911 10.1437
head 3.25658 -5.75135 3.63344
rclavicle -4.21423e-014 3.10104e-014
rhumerus 28.7949 -17.5458 -45.0222
rradius 118.836
rwrist -50.2154
rhand -12.1091 13.1403
rfingers 7.12502
rthumb 13.9518 -16.3716
lclavicle -4.21423e-014 3.10104e-014
lhumerus 31.5761 -0.0645097 70.3884
lradius 126.077
lwrist 71.2358
lhand -13.2294 -0.019702
lfingers 7.12502
lthumb 12.8721 29.5634
rfemur -1.21155 7.46691 18.5086
rtibia 29.1118
rfoot -20.2518 7.4589
rtoes -2.85397
lfemur 10.8622 8.24048 -16.3938
ltibia 17.6086
lfoot -23.1222 9.45292
ltoes -9.41277
1183
root 4.12087 17.2774 0.284986 354.503 66.1965 361.019
lowerback -4.22321 -2.81409 -3.59548
upperback -5.23695 -3.60878 -3.79152
thorax -3.06784 -1.69345 -1.961
lowerneck -2.38448 -8.70217 -6.77866
upperneck 6.71222 -12.0851 9.95968
head 3.40757 -5.83306 3.56689
rclavicle -1.23246e-014 -2.94201e-014
rhumerus 29.4064 -17.2817 -44.972
rradius 118.864
rwrist -48.974
rhand -12.8681 13.3448
rfingers 7.12502
rthumb 13.2203 -16.216
lclavicle -1.23246e-014 -2.94201e-014
lhumerus 32.2103 -0.653077 70.894
lradius 125.943
lwrist 70.4662
lhand -13.465 -0.368864
lfingers 7.12502
lthumb 12.6449 29.2284
rfemur -1.42476 7.66108 18.3996
rtibia 29.3616
rfoot -20.1691 7.69869
rtoes -2.71085
lfemur 10.9438 8.42298 -16.5233
ltibia 17.6301
lfoot -23.2678 9.69045
ltoes -9.25804
1184
root 4.1166 17.2715 0.276686 354.339 65.6716 360.88
lowerback -4.2927 -2.86934 -3.7083
upperback -5.19794 -3.67433 -3.7231
thorax -2.97736 -1.72304 -1.83317
lowerneck -2.57362 -8.76333 -6.78928
upperneck 7.0875 -12.1817 9.85795
head 3.55387 -5.87208 3.51568
rclavicle -1.82882e-014 -6.59965e-014
rhumerus 29.8451 -16.8242 -45.1438
rradius 118.895
rwrist -47.3106
rhand -13.7651 13.7752
rfingers 7.12502
rthumb 12.3556 -15.8397
lclavicle -1.82882e-014 -6.59965e-014
lhumerus 32.6575 -1.32267 71.1571
lradius 125.809
lwrist 69.5717
lhand -13.7432 -0.676993
lfingers 7.12502
lthumb 12.3767 28.9366
rfemur -1.63134 7.89509 18.4508
rtibia 29.5941
rfoot -20.0616 7.88873
rtoes -2.98212
lfemur 11.0252 8.67037 -16.4826
ltibia 17.6623
lfoot -23.3997 9.86362
ltoes -9.32903
1185
root 4.1128 17.2659 0.26849 354.416 65.1282 361.037
lowerback -4.26014 -2.93815 -3.88933
upperback -5.21509 -3.76518 -3.69385
thorax -3.00116 -1.7614 -1.70246
lowerneck -2.71085 -8.81486 -6.8765
upperneck 7.5127 -12.2683 9.76499
head 3.71109 -5.90879 3.48074
rclavicle 7.95139e-016 4.29375e-014
rhumerus 30.2446 -16.2726 -45.3973
rradius 118.952
rwrist -45.6178
rhand -14.5251 14.1453
rfingers 7.12502
rthumb 11.6228 -15.5123
lclavicle 7.95139e-016 4.29375e-014
lhumerus 32.97 -1.94213 71.4086
lradius 125.684
lwrist 68.7662
lhand -14.0348 -1.06736
lfingers 7.12502
lthumb 12.0955 28.563
rfemur -1.79266 8.15752 18.3717
rtibia 29.8103
rfoot -19.9988 8.06207
rtoes -3.24795
lfemur 11.1373 8.9381 -16.5712
ltibia 17.7031
lfoot -23.5671 9.9984
ltoes -8.98215
1186
root 4.11529 17.2621 0.260309 354.457 64.5918 361.157
lowerback -4.35022 -3.02006 -4.03189
upperback -5.18493 -3.8637 -3.65865
thorax -2.9083 -1.80689 -1.5947
lowerneck -2.80901 -8.86621 -6.92669
upperneck 7.78983 -12.3419 9.62948
head 3.81152 -5.94435 3.43276
rclavicle 4.37326e-015 2.14687e-014
rhumerus 30.6643 -15.7447 -45.6576
rradius 119.059
rwrist -44.1574
rhand -15.1847 14.0871
rfingers 7.12502
rthumb 10.9866 -15.6054
lclavicle 4.37326e-015 2.14687e-014
lhumerus 33.3092 -2.44406 71.6093
lradius 125.554
lwrist 68.1235
lhand -14.1802 -1.38759
lfingers 7.12502
lthumb 11.9553 28.251
rfemur -1.91624 8.36574 18.2865
rtibia 29.9999
rfoot -19.9058 8.34672
rtoes -3.01502
lfemur 11.2743 9.19873 -16.6481
ltibia 17.7666
lfoot -23.7567 10.1574
ltoes -8.77187
1187
root 4.1167 17.2595 0.25116 354.385 64.1173 361.155
lowerback -4.42639 -3.10801 -4.12467
upperback -5.14541 -3.97197 -3.64566
thorax -2.81775 -1.85958 -1.53751
lowerneck -2.88482 -8.93201 -6.91543
upperneck 8.01 -12.4385 9.53843
head 3.89214 -5.98931 3.38916
rclavicle -4.45278e-014 -1.59028e-014
rhumerus 31.0243 -15.2433 -45.9725
rradius 119.167
rwrist -43.0376
rhand -15.6217 13.9758
rfingers 7.12502
rthumb 10.5651 -15.7387
lclavicle -4.45278e-014 -1.59028e-014
lhumerus 33.703 -3.06425 71.7565
lradius 125.41
lwrist 67.3881
lhand -14.4153 -1.59571
lfingers 7.12502
lthumb 11.7287 28.0559
rfemur -2.03021 8.50751 18.2471
rtibia 30.1759
rfoot -19.7874 8.62522
rtoes -2.72418
lfemur 11.4136 9.41468 -16.6747
ltibia 17.7911
lfoot -23.8709 10.3761
ltoes -9.04576
1188
root 4.11362 17.2561 0.242316 354.297 63.6303 361.103
lowerback -4.50536 -3.17072 -4.18545
upperback -5.09934 -4.04701 -3.65452
thorax -2.72229 -1.89733 -1.52045
lowerneck -3.03405 -9.01982 -6.80971
upperneck 8.29406 -12.5662 9.39051
head 3.99732 -6.04563 3.30714
rclavicle 3.81667e-014 5.40694e-014
rhumerus 31.3494 -14.7884 -46.3002
rradius 119.234
rwrist -42.3051
rhand -15.9292 14.0479
rfingers 7.12502
rthumb 10.2685 -15.6815
lclavicle 3.81667e-014 5.40694e-014
lhumerus 34.1381 -3.87289 71.9465
lradius 125.208
lwrist 66.554
lhand -14.7443 -1.7881
lfingers 7.12502
lthumb 11.4114 27.8814
rfemur -2.19966 8.74178 18.2521
rtibia 30.3548
rfoot -19.6877 8.83148
rtoes -2.44182
lfemur 11.5156 9.68374 -16.6679
ltibia 17.7815
lfoot -23.9059 10.6443
ltoes -9.49426
1189
root 4.11124 17.2528 0.233367 354.44 63.1483 361.278
lowerback -4.61662 -3.24682 -4.30817
upperback -5.07456 -4.13561 -3.70816
thorax -2.6304 -1.93977 -1.51746
lowerneck -3.20032 -9.0863 -6.77081
upperneck 8.66536 -12.673 9.30372
head 4.13805 -6.08889 3.25235
rclavicle 1.19271e-014 5.00937e-014
rhumerus 31.7166 -14.3168 -46.6364
rradius 119.248
rwrist -41.9724
rhand -16.3711 14.1491
rfingers 7.12502
rthumb 9.84215 -15.6009
lclavicle 1.19271e-014 5.00937e-014
lhumerus 34.4657 -4.70652 72.1656
lradius 125.001
lwrist 65.5612
lhand -14.9315 -1.91538
lfingers 7.12502
lthumb 11.2308 27.764
rfemur -2.39796 8.9796 18.1347
rtibia 30.55
rfoot -19.5914 9.08056
rtoes -2.00583
lfemur 11.5675 9.93407 -16.7824
ltibia 17.8169
lfoot -24.0321 10.7998
ltoes -9.13496
1190
root 4.11031 17.2482 0.223142 354.782 62.7076 361.723
lowerback -4.67805 -3.34744 -4.57213
upperback -5.0803 -4.25662 -3.7997
thorax -2.59149 -1.99278 -1.47341
lowerneck -3.26761 -9.1256 -6.79203
upperneck 9.09578 -12.7533 9.26582
head 4.2852 -6.12048 3.22686
rclavicle -6.75868e-015 -3.97569e-015
rhumerus 32.0479 -13.7699 -46.9869
rradius 119.297
rwrist -41.793
rhand -16.7795 14.1664
rfingers 7.12502
rthumb 9.44815 -15.6018
lclavicle -6.75868e-015 -3.97569e-015
lhumerus 34.7168 -5.43554 72.325
lradius 124.848
lwrist 64.5375
lhand -15.0547 -2.10246
lfingers 7.12502
lthumb 11.112 27.5833
rfemur -2.55844 9.11822 17.8588
rtibia 30.7656
rfoot -19.5152 9.34145
rtoes -2.11994
lfemur 11.6293 10.1014 -17.0641
ltibia 17.9098
lfoot -24.2241 11.0066
ltoes -8.92902
1191
root 4.1056 17.2425 0.213696 354.797 62.2152 361.804
lowerback -4.68428 -3.44369 -4.75151
upperback -5.09967 -4.37991 -3.77448
thorax -2.59317 -2.04787 -1.35218
lowerneck -3.44874 -9.14333 -6.9175
upperneck 9.62729 -12.8035 9.25904
head 4.48865 -6.13397 3.22134
rclavicle -1.52667e-013 -1.90833e-014
rhumerus 32.4175 -13.1391 -47.3757
rradius 119.352
rwrist -41.5147
rhand -17.0481 14.3602
rfingers 7.12502
rthumb 9.1889 -15.4196
lclavicle -1.52667e-013 -1.90833e-014
lhumerus 35.0331 -6.1123 72.4679
lradius 124.7
lwrist 63.5797
lhand -15.3666 -2.45104
lfingers 7.12502
lthumb 10.8111 27.2507
rfemur -2.74524 9.34554 17.7967
rtibia 30.989
rfoot -19.3917 9.56557
rtoes -2.075
lfemur 11.682 10.32 -17.1508
ltibia 17.999
lfoot -24.3536 11.2798
ltoes -9.19857
1192
root 4.0986 17.2372 0.204747 354.594 61.6986 361.609
lowerback -4.7067 -3.5241 -4.82018
upperback -5.12725 -4.48469 -3.70816
thorax -2.59818 -2.09686 -1.24979
lowerneck -3.56392 -9.1603 -7.04511
upperneck 10.0547 -12.846 9.24317
head 4.64887 -6.14857 3.21925
rclavicle -8.22969e-014 -1.51076e-014
rhumerus 32.7196 -12.5222 -47.7515
rradius 119.5
rwrist -40.9644
rhand -17.3675 14.5442
rfingers 7.12502
rthumb 8.8807 -15.2489
lclavicle -8.22969e-014 -1.51076e-014
lhumerus 35.3796 -6.86037 72.6682
lradius 124.441
lwrist 62.6726
lhand -15.7224 -2.87078
lfingers 7.12502
lthumb 10.4679 26.8486
rfemur -2.97923 9.6027 17.8948
rtibia 31.2132
rfoot -19.2594 9.69885
rtoes -1.93271
lfemur 11.7285 10.6415 -17.0517
ltibia 18.0534
lfoot -24.4742 11.3579
ltoes -8.85296
1193
root 4.09568 17.2319 0.194834 354.489 61.2517 361.575
lowerback -4.72991 -3.6162 -4.90233
upperback -5.1569 -4.6042 -3.70402
thorax -2.60872 -2.15322 -1.20467
lowerneck -3.58965 -9.16765 -7.15944
upperneck 10.4789 -12.874 9.17616
head 4.78805 -6.16134 3.20541
rclavicle 2.78299e-014 5.56597e-015
rhumerus 32.945 -11.8558 -48.0487
rradius 119.617
rwrist -39.952
rhand -17.8857 14.7919
rfingers 7.12502
rthumb 8.38066 -15.0218
lclavicle 2.78299e-014 5.56597e-015
lhumerus 35.6618 -7.71278 72.8529
lradius 124.155
lwrist 61.6633
lhand -16.1122 -3.49488
lfingers 7.12502
lthumb 10.0919 26.2431
rfemur -3.12801 9.76902 17.8913
rtibia 31.4245
rfoot -19.1865 9.86252
rtoes -2.12714
lfemur 11.8124 10.9779 -17.0126
ltibia 18.146
lfoot -24.5651 11.3879
ltoes -8.73088
1194
root 4.09907 17.2266 0.1838 354.589 60.7896 361.847
lowerback -4.7671 -3.70914 -5.06441
upperback -5.15071 -4.71957 -3.7741
thorax -2.57444 -2.20704 -1.19427
lowerneck -3.74431 -9.16533 -7.14749
upperneck 11.0238 -12.888 9.00934
head 4.9704 -6.16162 3.13517
rclavicle -1.56245e-013 -2.14687e-014
rhumerus 33.2024 -11.1059 -48.4137
rradius 119.691
rwrist -38.41
rhand -18.4813 15.1553
rfingers 7.12502
rthumb 7.80584 -14.6806
lclavicle -1.56245e-013 -2.14687e-014
lhumerus 35.9783 -8.59219 72.9138
lradius 123.914
lwrist 60.5511
lhand -16.692 -4.16025
lfingers 7.12502
lthumb 9.53252 25.6041
rfemur -3.17452 9.92399 17.7082
rtibia 31.6105
rfoot -19.1105 10.1355
rtoes -2.35039
lfemur 11.9587 11.233 -17.168
ltibia 18.2818
lfoot -24.7893 11.5374
ltoes -8.80634
